<svg width="300" height="60" viewBox="0 0 300 60" fill="none" xmlns="http://www.w3.org/2000/svg">
  <!-- Biểu tượng lá xanh -->
  <path d="M20.1369 60C22.8983 60 25.1842 57.7425 24.6732 55.0288C24.3528 53.3274 23.8679 51.6594 23.2235 50.0502C21.9602 46.8958 20.1087 44.0295 17.7745 41.6152C15.4403 39.2009 12.6692 37.2858 9.61949 35.9791C8.11383 35.3341 6.55481 34.8435 4.96489 34.5122C2.26154 33.9488 0 36.2386 0 39V55C0 57.7614 2.23858 60 5 60H20.1369Z" fill="#00C897"/>
  <g style="mix-blend-mode:multiply">
    <path d="M13.7013 60C10.9399 60 8.65395 57.7425 9.16502 55.0288C9.48544 53.3274 9.97031 51.6594 10.6147 50.0502C11.878 46.8958 13.7295 44.0295 16.0637 41.6152C18.3979 39.2009 21.169 37.2858 24.2187 35.9791C25.7244 35.3341 27.2834 34.8435 28.8733 34.5122C31.5767 33.9488 33.8382 36.2386 33.8382 39V55C33.8382 57.7614 31.5996 60 28.8382 60H13.7013Z" fill="#3DD9EB"/>
  </g>

  <!-- Chữ FOOD XANH -->
  <text x="50" y="45" font-family="Arial, Helvetica, sans-serif" font-size="30" fill="#00A86B" font-weight="bold">FOOD XANH</text>
</svg>
